<?xml version="1.0" encoding="UTF-8"?>
<svg xmlns="http://www.w3.org/2000/svg" xmlns:xlink="http://www.w3.org/1999/xlink" width="144px" height="144px" viewBox="0 0 144 144" version="1.1">
<g id="surface1">
<path style=" stroke:none;fill-rule:nonzero;fill:rgb(49.803922%,69.803922%,11.764706%);fill-opacity:1;" d="M 144 72 C 144 111.765625 111.765625 144 72 144 C 32.234375 144 0 111.765625 0 72 C 0 32.234375 32.234375 0 72 0 C 111.765625 0 144 32.234375 144 72 Z M 144 72 "/>
<path style=" stroke:none;fill-rule:nonzero;fill:rgb(49.803922%,69.803922%,11.764706%);fill-opacity:1;" d="M 59.109375 142.847656 L 142.734375 85.480469 C 143.558594 81.113281 144 76.609375 144 72 C 144 32.234375 111.765625 0 72 0 C 32.234375 0 0 32.234375 0 72 C 0 107.363281 25.496094 136.769531 59.109375 142.847656 Z M 59.109375 142.847656 "/>
<path style=" stroke:none;fill-rule:nonzero;fill:rgb(33.333333%,46.666667%,7.843137%);fill-opacity:1;" d="M 142.734375 85.480469 L 75.253906 18 L 15.652344 99.394531 L 59.109375 142.847656 C 63.289062 143.605469 67.597656 144 72 144 C 107.15625 144 136.421875 118.800781 142.734375 85.480469 Z M 142.734375 85.480469 "/>
<path style=" stroke:none;fill-rule:nonzero;fill:rgb(100%,76.078431%,25.098039%);fill-opacity:1;" d="M 40.820312 18 L 40.820312 27.394531 L 60.851562 30.519531 L 57.722656 18 Z M 40.820312 18 "/>
<path style=" stroke:none;fill-rule:nonzero;fill:rgb(100%,59.607843%,29.803922%);fill-opacity:1;" d="M 75.253906 18 L 57.722656 18 L 57.722656 30.519531 L 75.253906 27.394531 Z M 75.253906 18 "/>
<path style=" stroke:none;fill-rule:nonzero;fill:rgb(100%,59.607843%,29.803922%);fill-opacity:1;" d="M 32.679688 27.394531 L 32.679688 41.480469 L 60.851562 41.480469 L 57.722656 27.394531 Z M 32.679688 27.394531 "/>
<path style=" stroke:none;fill-rule:nonzero;fill:rgb(100%,43.137255%,21.176471%);fill-opacity:1;" d="M 58.347656 27.394531 L 82.765625 27.394531 L 82.765625 41.480469 L 58.347656 41.480469 Z M 58.347656 27.394531 "/>
<path style=" stroke:none;fill-rule:nonzero;fill:rgb(100%,43.137255%,21.176471%);fill-opacity:1;" d="M 45.203125 14.867188 L 51.464844 14.867188 L 51.464844 41.480469 L 45.203125 41.480469 Z M 45.203125 14.867188 "/>
<path style=" stroke:none;fill-rule:nonzero;fill:rgb(100%,32.54902%,27.843137%);fill-opacity:1;" d="M 63.984375 14.867188 L 70.246094 14.867188 L 70.246094 41.480469 L 63.984375 41.480469 Z M 63.984375 14.867188 "/>
<path style=" stroke:none;fill-rule:nonzero;fill:rgb(100%,43.137255%,21.176471%);fill-opacity:1;" d="M 12.519531 83.738281 L 15.652344 83.738281 L 18.78125 86.867188 L 15.652344 90 L 12.519531 90 Z M 12.519531 83.738281 "/>
<path style=" stroke:none;fill-rule:nonzero;fill:rgb(100%,100%,100%);fill-opacity:1;" d="M 131.480469 80.605469 L 134.605469 80.605469 L 134.605469 90 L 131.480469 90 L 128.347656 85.304688 Z M 131.480469 80.605469 "/>
<path style=" stroke:none;fill-rule:nonzero;fill:rgb(100%,32.54902%,27.843137%);fill-opacity:1;" d="M 23.878906 38.347656 L 15.652344 74.347656 L 15.652344 93.132812 L 57.722656 95.40625 L 60.851562 66.875 L 57.722656 38.347656 Z M 23.878906 38.347656 "/>
<path style=" stroke:none;fill-rule:nonzero;fill:rgb(100%,9.803922%,3.529412%);fill-opacity:1;" d="M 97.824219 65.738281 L 91.566406 38.347656 L 57.722656 38.347656 L 57.722656 95.40625 L 73.566406 96.261719 L 131.480469 93.132812 L 131.480469 74.347656 Z M 97.824219 65.738281 "/>
<path style=" stroke:none;fill-rule:nonzero;fill:rgb(100%,94.117647%,81.176471%);fill-opacity:1;" d="M 60.851562 65.738281 L 91.402344 65.738281 L 86.574219 44.605469 L 60.851562 44.605469 Z M 60.851562 65.738281 "/>
<path style=" stroke:none;fill-rule:nonzero;fill:rgb(100%,100%,100%);fill-opacity:1;" d="M 54.589844 44.605469 L 28.871094 44.605469 L 24.042969 65.738281 L 54.589844 65.738281 Z M 54.589844 44.605469 "/>
<path style=" stroke:none;fill-rule:nonzero;fill:rgb(100%,9.803922%,3.529412%);fill-opacity:1;" d="M 15.652344 93.132812 L 15.652344 99.394531 L 57.914062 99.394531 L 61.042969 96.261719 L 57.914062 93.132812 Z M 15.652344 93.132812 "/>
<path style=" stroke:none;fill-rule:nonzero;fill:rgb(66.666667%,6.666667%,2.352941%);fill-opacity:1;" d="M 57.914062 93.132812 L 131.480469 93.132812 L 131.480469 99.394531 L 57.914062 99.394531 Z M 57.914062 93.132812 "/>
<path style=" stroke:none;fill-rule:nonzero;fill:rgb(100%,9.803922%,3.529412%);fill-opacity:1;" d="M 36.78125 80.605469 C 26.410156 80.605469 18 89.019531 18 99.394531 L 55.566406 99.394531 C 55.566406 89.019531 47.15625 80.605469 36.78125 80.605469 Z M 36.78125 80.605469 "/>
<path style=" stroke:none;fill-rule:nonzero;fill:rgb(66.666667%,6.666667%,2.352941%);fill-opacity:1;" d="M 110.347656 80.605469 C 99.976562 80.605469 91.566406 89.019531 91.566406 99.394531 L 129.132812 99.394531 C 129.132812 89.019531 120.722656 80.605469 110.347656 80.605469 Z M 110.347656 80.605469 "/>
<path style=" stroke:none;fill-rule:nonzero;fill:rgb(3.529412%,42.352941%,50.196078%);fill-opacity:1;" d="M 24.261719 99.394531 C 24.261719 106.308594 29.867188 111.914062 36.78125 111.914062 L 39.914062 99.394531 L 36.78125 86.867188 C 29.867188 86.867188 24.261719 92.476562 24.261719 99.394531 Z M 24.261719 99.394531 "/>
<path style=" stroke:none;fill-rule:nonzero;fill:rgb(2.352941%,28.235294%,33.333333%);fill-opacity:1;" d="M 36.78125 86.867188 L 36.78125 111.914062 C 43.699219 111.914062 49.304688 106.308594 49.304688 99.394531 C 49.304688 92.476562 43.699219 86.867188 36.78125 86.867188 Z M 36.78125 86.867188 "/>
<path style=" stroke:none;fill-rule:nonzero;fill:rgb(100%,100%,100%);fill-opacity:1;" d="M 30.519531 99.394531 C 30.519531 102.847656 33.324219 105.652344 36.78125 105.652344 L 39.914062 99.394531 L 36.78125 93.132812 C 33.324219 93.132812 30.519531 95.933594 30.519531 99.394531 Z M 30.519531 99.394531 "/>
<path style=" stroke:none;fill-rule:nonzero;fill:rgb(53.72549%,92.156863%,100%);fill-opacity:1;" d="M 36.78125 93.132812 L 36.78125 105.652344 C 40.238281 105.652344 43.042969 102.847656 43.042969 99.394531 C 43.042969 95.933594 40.238281 93.132812 36.78125 93.132812 Z M 36.78125 93.132812 "/>
<path style=" stroke:none;fill-rule:nonzero;fill:rgb(2.352941%,28.235294%,33.333333%);fill-opacity:1;" d="M 97.824219 99.394531 C 97.824219 106.308594 103.433594 111.914062 110.347656 111.914062 L 113.480469 99.394531 L 110.347656 86.867188 C 103.433594 86.867188 97.824219 92.476562 97.824219 99.394531 Z M 97.824219 99.394531 "/>
<path style=" stroke:none;fill-rule:nonzero;fill:rgb(1.176471%,14.117647%,16.862745%);fill-opacity:1;" d="M 110.347656 86.867188 L 110.347656 111.914062 C 117.261719 111.914062 122.867188 106.308594 122.867188 99.394531 C 122.867188 92.476562 117.261719 86.867188 110.347656 86.867188 Z M 110.347656 86.867188 "/>
<path style=" stroke:none;fill-rule:nonzero;fill:rgb(76.862745%,96.078431%,100%);fill-opacity:1;" d="M 104.085938 99.394531 C 104.085938 102.847656 106.890625 105.652344 110.347656 105.652344 L 113.480469 99.394531 L 110.347656 93.132812 C 106.890625 93.132812 104.085938 95.933594 104.085938 99.394531 Z M 104.085938 99.394531 "/>
<path style=" stroke:none;fill-rule:nonzero;fill:rgb(30.196078%,88.235294%,100%);fill-opacity:1;" d="M 110.347656 93.132812 L 110.347656 105.652344 C 113.808594 105.652344 116.605469 102.847656 116.605469 99.394531 C 116.605469 95.933594 113.808594 93.132812 110.347656 93.132812 Z M 110.347656 93.132812 "/>
</g>
</svg>
