<?xml version="1.0" encoding="UTF-8"?>
<svg xmlns="http://www.w3.org/2000/svg" xmlns:xlink="http://www.w3.org/1999/xlink" width="192px" height="192px" viewBox="0 0 192 192" version="1.1">
<g id="surface1">
<path style=" stroke:none;fill-rule:nonzero;fill:rgb(49.803922%,69.803922%,11.764706%);fill-opacity:1;" d="M 192 96 C 192 149.019531 149.019531 192 96 192 C 42.980469 192 0 149.019531 0 96 C 0 42.980469 42.980469 0 96 0 C 149.019531 0 192 42.980469 192 96 Z M 192 96 "/>
<path style=" stroke:none;fill-rule:nonzero;fill:rgb(49.803922%,69.803922%,11.764706%);fill-opacity:1;" d="M 78.8125 190.464844 L 190.3125 113.976562 C 191.414062 108.152344 192 102.144531 192 96 C 192 42.980469 149.019531 0 96 0 C 42.980469 0 0 42.980469 0 96 C 0 143.152344 33.996094 182.359375 78.8125 190.464844 Z M 78.8125 190.464844 "/>
<path style=" stroke:none;fill-rule:nonzero;fill:rgb(33.333333%,46.666667%,7.843137%);fill-opacity:1;" d="M 190.3125 113.972656 L 100.339844 24 L 20.871094 132.523438 L 78.8125 190.464844 C 84.386719 191.472656 90.132812 192 96 192 C 142.875 192 181.894531 158.402344 190.3125 113.972656 Z M 190.3125 113.972656 "/>
<path style=" stroke:none;fill-rule:nonzero;fill:rgb(100%,76.078431%,25.098039%);fill-opacity:1;" d="M 54.425781 24 L 54.425781 36.523438 L 81.136719 40.695312 L 76.964844 24 Z M 54.425781 24 "/>
<path style=" stroke:none;fill-rule:nonzero;fill:rgb(100%,59.607843%,29.803922%);fill-opacity:1;" d="M 100.339844 24 L 76.964844 24 L 76.964844 40.695312 L 100.339844 36.523438 Z M 100.339844 24 "/>
<path style=" stroke:none;fill-rule:nonzero;fill:rgb(100%,59.607843%,29.803922%);fill-opacity:1;" d="M 43.574219 36.523438 L 43.574219 55.304688 L 81.136719 55.304688 L 76.964844 36.523438 Z M 43.574219 36.523438 "/>
<path style=" stroke:none;fill-rule:nonzero;fill:rgb(100%,43.137255%,21.176471%);fill-opacity:1;" d="M 77.796875 36.523438 L 110.355469 36.523438 L 110.355469 55.304688 L 77.796875 55.304688 Z M 77.796875 36.523438 "/>
<path style=" stroke:none;fill-rule:nonzero;fill:rgb(100%,43.137255%,21.176471%);fill-opacity:1;" d="M 60.269531 19.824219 L 68.617188 19.824219 L 68.617188 55.304688 L 60.269531 55.304688 Z M 60.269531 19.824219 "/>
<path style=" stroke:none;fill-rule:nonzero;fill:rgb(100%,32.54902%,27.843137%);fill-opacity:1;" d="M 85.3125 19.824219 L 93.660156 19.824219 L 93.660156 55.304688 L 85.3125 55.304688 Z M 85.3125 19.824219 "/>
<path style=" stroke:none;fill-rule:nonzero;fill:rgb(100%,43.137255%,21.176471%);fill-opacity:1;" d="M 16.695312 111.652344 L 20.871094 111.652344 L 25.042969 115.824219 L 20.871094 120 L 16.695312 120 Z M 16.695312 111.652344 "/>
<path style=" stroke:none;fill-rule:nonzero;fill:rgb(100%,100%,100%);fill-opacity:1;" d="M 175.304688 107.476562 L 179.476562 107.476562 L 179.476562 120 L 175.304688 120 L 171.128906 113.738281 Z M 175.304688 107.476562 "/>
<path style=" stroke:none;fill-rule:nonzero;fill:rgb(100%,32.54902%,27.843137%);fill-opacity:1;" d="M 31.839844 51.128906 L 20.871094 99.128906 L 20.871094 124.175781 L 76.964844 127.207031 L 81.136719 89.167969 L 76.964844 51.128906 Z M 31.839844 51.128906 "/>
<path style=" stroke:none;fill-rule:nonzero;fill:rgb(100%,9.803922%,3.529412%);fill-opacity:1;" d="M 130.433594 87.652344 L 122.085938 51.128906 L 76.964844 51.128906 L 76.964844 127.207031 L 98.085938 128.347656 L 175.304688 124.175781 L 175.304688 99.128906 Z M 130.433594 87.652344 "/>
<path style=" stroke:none;fill-rule:nonzero;fill:rgb(100%,94.117647%,81.176471%);fill-opacity:1;" d="M 81.136719 87.652344 L 121.871094 87.652344 L 115.433594 59.476562 L 81.136719 59.476562 Z M 81.136719 87.652344 "/>
<path style=" stroke:none;fill-rule:nonzero;fill:rgb(100%,100%,100%);fill-opacity:1;" d="M 72.789062 59.476562 L 38.496094 59.476562 L 32.054688 87.652344 L 72.789062 87.652344 Z M 72.789062 59.476562 "/>
<path style=" stroke:none;fill-rule:nonzero;fill:rgb(100%,9.803922%,3.529412%);fill-opacity:1;" d="M 20.871094 124.175781 L 20.871094 132.523438 L 77.21875 132.523438 L 81.390625 128.347656 L 77.21875 124.175781 Z M 20.871094 124.175781 "/>
<path style=" stroke:none;fill-rule:nonzero;fill:rgb(66.666667%,6.666667%,2.352941%);fill-opacity:1;" d="M 77.21875 124.175781 L 175.304688 124.175781 L 175.304688 132.523438 L 77.21875 132.523438 Z M 77.21875 124.175781 "/>
<path style=" stroke:none;fill-rule:nonzero;fill:rgb(100%,9.803922%,3.529412%);fill-opacity:1;" d="M 49.042969 107.476562 C 35.210938 107.476562 24 118.691406 24 132.523438 L 74.085938 132.523438 C 74.085938 118.691406 62.875 107.476562 49.042969 107.476562 Z M 49.042969 107.476562 "/>
<path style=" stroke:none;fill-rule:nonzero;fill:rgb(66.666667%,6.666667%,2.352941%);fill-opacity:1;" d="M 147.128906 107.476562 C 133.300781 107.476562 122.085938 118.691406 122.085938 132.523438 L 172.175781 132.523438 C 172.175781 118.691406 160.960938 107.476562 147.128906 107.476562 Z M 147.128906 107.476562 "/>
<path style=" stroke:none;fill-rule:nonzero;fill:rgb(3.529412%,42.352941%,50.196078%);fill-opacity:1;" d="M 32.347656 132.523438 C 32.347656 141.742188 39.824219 149.21875 49.042969 149.21875 L 53.21875 132.523438 L 49.042969 115.824219 C 39.824219 115.824219 32.347656 123.300781 32.347656 132.523438 Z M 32.347656 132.523438 "/>
<path style=" stroke:none;fill-rule:nonzero;fill:rgb(2.352941%,28.235294%,33.333333%);fill-opacity:1;" d="M 49.042969 115.824219 L 49.042969 149.21875 C 58.265625 149.21875 65.738281 141.742188 65.738281 132.523438 C 65.738281 123.300781 58.265625 115.824219 49.042969 115.824219 Z M 49.042969 115.824219 "/>
<path style=" stroke:none;fill-rule:nonzero;fill:rgb(100%,100%,100%);fill-opacity:1;" d="M 40.695312 132.523438 C 40.695312 137.132812 44.433594 140.871094 49.042969 140.871094 L 53.21875 132.523438 L 49.042969 124.175781 C 44.433594 124.175781 40.695312 127.910156 40.695312 132.523438 Z M 40.695312 132.523438 "/>
<path style=" stroke:none;fill-rule:nonzero;fill:rgb(53.72549%,92.156863%,100%);fill-opacity:1;" d="M 49.042969 124.175781 L 49.042969 140.871094 C 53.652344 140.871094 57.390625 137.132812 57.390625 132.523438 C 57.390625 127.910156 53.652344 124.175781 49.042969 124.175781 Z M 49.042969 124.175781 "/>
<path style=" stroke:none;fill-rule:nonzero;fill:rgb(2.352941%,28.235294%,33.333333%);fill-opacity:1;" d="M 130.433594 132.523438 C 130.433594 141.742188 137.910156 149.21875 147.128906 149.21875 L 151.304688 132.523438 L 147.128906 115.824219 C 137.910156 115.824219 130.433594 123.300781 130.433594 132.523438 Z M 130.433594 132.523438 "/>
<path style=" stroke:none;fill-rule:nonzero;fill:rgb(1.176471%,14.117647%,16.862745%);fill-opacity:1;" d="M 147.128906 115.824219 L 147.128906 149.21875 C 156.351562 149.21875 163.824219 141.742188 163.824219 132.523438 C 163.824219 123.300781 156.351562 115.824219 147.128906 115.824219 Z M 147.128906 115.824219 "/>
<path style=" stroke:none;fill-rule:nonzero;fill:rgb(76.862745%,96.078431%,100%);fill-opacity:1;" d="M 138.78125 132.523438 C 138.78125 137.132812 142.519531 140.871094 147.128906 140.871094 L 151.304688 132.523438 L 147.128906 124.175781 C 142.519531 124.175781 138.78125 127.910156 138.78125 132.523438 Z M 138.78125 132.523438 "/>
<path style=" stroke:none;fill-rule:nonzero;fill:rgb(30.196078%,88.235294%,100%);fill-opacity:1;" d="M 147.128906 124.175781 L 147.128906 140.871094 C 151.742188 140.871094 155.476562 137.132812 155.476562 132.523438 C 155.476562 127.910156 151.742188 124.175781 147.128906 124.175781 Z M 147.128906 124.175781 "/>
</g>
</svg>
