<?xml version="1.0" encoding="UTF-8"?>
<svg xmlns="http://www.w3.org/2000/svg" xmlns:xlink="http://www.w3.org/1999/xlink" width="520px" height="520px" viewBox="0 0 520 520" version="1.1">
<g id="surface1">
<path style=" stroke:none;fill-rule:nonzero;fill:rgb(49.803922%,69.803922%,11.764706%);fill-opacity:1;" d="M 520 260 C 520 403.59375 403.59375 520 260 520 C 116.40625 520 0 403.59375 0 260 C 0 116.40625 116.40625 0 260 0 C 403.59375 0 520 116.40625 520 260 Z M 520 260 "/>
<path style=" stroke:none;fill-rule:nonzero;fill:rgb(49.803922%,69.803922%,11.764706%);fill-opacity:1;" d="M 213.449219 515.84375 L 515.429688 308.6875 C 518.414062 292.914062 520 276.640625 520 260 C 520 116.40625 403.59375 0 260 0 C 116.40625 0 0 116.40625 0 260 C 0 387.703125 92.074219 493.890625 213.449219 515.84375 Z M 213.449219 515.84375 "/>
<path style=" stroke:none;fill-rule:nonzero;fill:rgb(33.333333%,46.666667%,7.843137%);fill-opacity:1;" d="M 515.429688 308.675781 L 271.753906 65 L 56.527344 358.917969 L 213.449219 515.84375 C 228.546875 518.570312 244.109375 520 260 520 C 386.953125 520 492.632812 429.007812 515.429688 308.675781 Z M 515.429688 308.675781 "/>
<path style=" stroke:none;fill-rule:nonzero;fill:rgb(100%,76.078431%,25.098039%);fill-opacity:1;" d="M 147.402344 65 L 147.402344 98.917969 L 219.746094 110.214844 L 208.445312 65 Z M 147.402344 65 "/>
<path style=" stroke:none;fill-rule:nonzero;fill:rgb(100%,59.607843%,29.803922%);fill-opacity:1;" d="M 271.753906 65 L 208.445312 65 L 208.445312 110.214844 L 271.753906 98.917969 Z M 271.753906 65 "/>
<path style=" stroke:none;fill-rule:nonzero;fill:rgb(100%,59.607843%,29.803922%);fill-opacity:1;" d="M 118.011719 98.917969 L 118.011719 149.785156 L 219.746094 149.785156 L 208.445312 98.917969 Z M 118.011719 98.917969 "/>
<path style=" stroke:none;fill-rule:nonzero;fill:rgb(100%,43.137255%,21.176471%);fill-opacity:1;" d="M 210.699219 98.917969 L 298.878906 98.917969 L 298.878906 149.785156 L 210.699219 149.785156 Z M 210.699219 98.917969 "/>
<path style=" stroke:none;fill-rule:nonzero;fill:rgb(100%,43.137255%,21.176471%);fill-opacity:1;" d="M 163.230469 53.691406 L 185.839844 53.691406 L 185.839844 149.785156 L 163.230469 149.785156 Z M 163.230469 53.691406 "/>
<path style=" stroke:none;fill-rule:nonzero;fill:rgb(100%,32.54902%,27.843137%);fill-opacity:1;" d="M 231.054688 53.691406 L 253.664062 53.691406 L 253.664062 149.785156 L 231.054688 149.785156 Z M 231.054688 53.691406 "/>
<path style=" stroke:none;fill-rule:nonzero;fill:rgb(100%,43.137255%,21.176471%);fill-opacity:1;" d="M 45.214844 302.390625 L 56.527344 302.390625 L 67.824219 313.691406 L 56.527344 325 L 45.214844 325 Z M 45.214844 302.390625 "/>
<path style=" stroke:none;fill-rule:nonzero;fill:rgb(100%,100%,100%);fill-opacity:1;" d="M 474.785156 291.082031 L 486.082031 291.082031 L 486.082031 325 L 474.785156 325 L 463.472656 308.042969 Z M 474.785156 291.082031 "/>
<path style=" stroke:none;fill-rule:nonzero;fill:rgb(100%,32.54902%,27.843137%);fill-opacity:1;" d="M 86.234375 138.472656 L 56.527344 268.472656 L 56.527344 336.308594 L 208.445312 344.519531 L 219.746094 241.496094 L 208.445312 138.472656 Z M 86.234375 138.472656 "/>
<path style=" stroke:none;fill-rule:nonzero;fill:rgb(100%,9.803922%,3.529412%);fill-opacity:1;" d="M 353.257812 237.390625 L 330.648438 138.472656 L 208.445312 138.472656 L 208.445312 344.519531 L 265.648438 347.609375 L 474.785156 336.308594 L 474.785156 268.472656 Z M 353.257812 237.390625 "/>
<path style=" stroke:none;fill-rule:nonzero;fill:rgb(100%,94.117647%,81.176471%);fill-opacity:1;" d="M 219.746094 237.390625 L 330.066406 237.390625 L 312.632812 161.082031 L 219.746094 161.082031 Z M 219.746094 237.390625 "/>
<path style=" stroke:none;fill-rule:nonzero;fill:rgb(100%,100%,100%);fill-opacity:1;" d="M 197.136719 161.082031 L 104.261719 161.082031 L 86.816406 237.390625 L 197.136719 237.390625 Z M 197.136719 161.082031 "/>
<path style=" stroke:none;fill-rule:nonzero;fill:rgb(100%,9.803922%,3.529412%);fill-opacity:1;" d="M 56.527344 336.308594 L 56.527344 358.917969 L 209.132812 358.917969 L 220.433594 347.609375 L 209.132812 336.308594 Z M 56.527344 336.308594 "/>
<path style=" stroke:none;fill-rule:nonzero;fill:rgb(66.666667%,6.666667%,2.352941%);fill-opacity:1;" d="M 209.132812 336.308594 L 474.785156 336.308594 L 474.785156 358.917969 L 209.132812 358.917969 Z M 209.132812 336.308594 "/>
<path style=" stroke:none;fill-rule:nonzero;fill:rgb(100%,9.803922%,3.529412%);fill-opacity:1;" d="M 132.824219 291.082031 C 95.363281 291.082031 65 321.457031 65 358.917969 L 200.648438 358.917969 C 200.648438 321.457031 170.285156 291.082031 132.824219 291.082031 Z M 132.824219 291.082031 "/>
<path style=" stroke:none;fill-rule:nonzero;fill:rgb(66.666667%,6.666667%,2.352941%);fill-opacity:1;" d="M 398.472656 291.082031 C 361.023438 291.082031 330.648438 321.457031 330.648438 358.917969 L 466.308594 358.917969 C 466.308594 321.457031 435.9375 291.082031 398.472656 291.082031 Z M 398.472656 291.082031 "/>
<path style=" stroke:none;fill-rule:nonzero;fill:rgb(3.529412%,42.352941%,50.196078%);fill-opacity:1;" d="M 87.609375 358.917969 C 87.609375 383.886719 107.855469 404.132812 132.824219 404.132812 L 144.132812 358.917969 L 132.824219 313.691406 C 107.855469 313.691406 87.609375 333.941406 87.609375 358.917969 Z M 87.609375 358.917969 "/>
<path style=" stroke:none;fill-rule:nonzero;fill:rgb(2.352941%,28.235294%,33.333333%);fill-opacity:1;" d="M 132.824219 313.691406 L 132.824219 404.132812 C 157.804688 404.132812 178.042969 383.886719 178.042969 358.917969 C 178.042969 333.941406 157.804688 313.691406 132.824219 313.691406 Z M 132.824219 313.691406 "/>
<path style=" stroke:none;fill-rule:nonzero;fill:rgb(100%,100%,100%);fill-opacity:1;" d="M 110.214844 358.917969 C 110.214844 371.402344 120.339844 381.527344 132.824219 381.527344 L 144.132812 358.917969 L 132.824219 336.308594 C 120.339844 336.308594 110.214844 346.421875 110.214844 358.917969 Z M 110.214844 358.917969 "/>
<path style=" stroke:none;fill-rule:nonzero;fill:rgb(53.72549%,92.156863%,100%);fill-opacity:1;" d="M 132.824219 336.308594 L 132.824219 381.527344 C 145.308594 381.527344 155.433594 371.402344 155.433594 358.917969 C 155.433594 346.421875 145.308594 336.308594 132.824219 336.308594 Z M 132.824219 336.308594 "/>
<path style=" stroke:none;fill-rule:nonzero;fill:rgb(2.352941%,28.235294%,33.333333%);fill-opacity:1;" d="M 353.257812 358.917969 C 353.257812 383.886719 373.507812 404.132812 398.472656 404.132812 L 409.785156 358.917969 L 398.472656 313.691406 C 373.507812 313.691406 353.257812 333.941406 353.257812 358.917969 Z M 353.257812 358.917969 "/>
<path style=" stroke:none;fill-rule:nonzero;fill:rgb(1.176471%,14.117647%,16.862745%);fill-opacity:1;" d="M 398.472656 313.691406 L 398.472656 404.132812 C 423.453125 404.132812 443.691406 383.886719 443.691406 358.917969 C 443.691406 333.941406 423.453125 313.691406 398.472656 313.691406 Z M 398.472656 313.691406 "/>
<path style=" stroke:none;fill-rule:nonzero;fill:rgb(76.862745%,96.078431%,100%);fill-opacity:1;" d="M 375.867188 358.917969 C 375.867188 371.402344 385.992188 381.527344 398.472656 381.527344 L 409.785156 358.917969 L 398.472656 336.308594 C 385.992188 336.308594 375.867188 346.421875 375.867188 358.917969 Z M 375.867188 358.917969 "/>
<path style=" stroke:none;fill-rule:nonzero;fill:rgb(30.196078%,88.235294%,100%);fill-opacity:1;" d="M 398.472656 336.308594 L 398.472656 381.527344 C 410.96875 381.527344 421.082031 371.402344 421.082031 358.917969 C 421.082031 346.421875 410.96875 336.308594 398.472656 336.308594 Z M 398.472656 336.308594 "/>
</g>
</svg>
